<svg viewBox="0 0 120 120" fill="none" xmlns="http://www.w3.org/2000/svg">
  <!-- Corner brackets - tech frame -->
  <path d="M10 25 L10 10 L25 10" fill="none" stroke="#1A56DB" stroke-width="3" opacity="0.5"/>
  <path d="M95 10 L110 10 L110 25" fill="none" stroke="#1A56DB" stroke-width="3" opacity="0.5"/>
  <path d="M10 95 L10 110 L25 110" fill="none" stroke="#1A56DB" stroke-width="3" opacity="0.5"/>
  <path d="M95 110 L110 110 L110 95" fill="none" stroke="#1A56DB" stroke-width="3" opacity="0.5"/>
  <!-- Outer eye shape -->
  <path d="M8 60 Q60 15 112 60 Q60 105 8 60Z" fill="#1A56DB" opacity="0.08"/>
  <path d="M8 60 Q60 15 112 60 Q60 105 8 60Z" fill="none" stroke="#1A56DB" stroke-width="2.5"/>
  <!-- Iris -->
  <circle cx="60" cy="60" r="22" fill="#1A56DB" opacity="0.15"/>
  <circle cx="60" cy="60" r="22" stroke="#1A56DB" stroke-width="2" fill="none"/>
  <!-- Pupil -->
  <circle cx="60" cy="60" r="10" fill="#1A56DB"/>
  <!-- Highlight -->
  <circle cx="53" cy="54" r="4" fill="white" opacity="0.7"/>
  <circle cx="66" cy="52" r="2" fill="white" opacity="0.4"/>
  <!-- Scan lines -->
  <line x1="15" y1="60" x2="30" y2="60" stroke="#1A56DB" stroke-width="1.5" opacity="0.4"/>
  <line x1="90" y1="60" x2="105" y2="60" stroke="#1A56DB" stroke-width="1.5" opacity="0.4"/>
  <line x1="60" y1="28" x2="60" y2="18" stroke="#1A56DB" stroke-width="1.5" opacity="0.4"/>
  <line x1="60" y1="102" x2="60" y2="92" stroke="#1A56DB" stroke-width="1.5" opacity="0.4"/>
</svg>
